<?xml version="1.0" standalone="no"?>
<!DOCTYPE svg PUBLIC "-//W3C//DTD SVG 20010904//EN"
 "http://www.w3.org/TR/2001/REC-SVG-20010904/DTD/svg10.dtd">
<svg version="1.0" xmlns="http://www.w3.org/2000/svg"
 width="364.000000pt" height="302.000000pt" viewBox="0 0 364.000000 302.000000"
 preserveAspectRatio="xMidYMid meet">

<g transform="translate(0.000000,302.000000) scale(0.100000,-0.100000)"
fill="#000000" stroke="none">
<path d="M806 2262 c5 -5 218 -66 474 -137 360 -99 479 -128 525 -128 46 0
167 30 515 127 250 69 464 130 475 135 12 6 -370 10 -989 10 -556 1 -1006 -3
-1000 -7z"/>
<path d="M790 1721 l0 -430 73 33 c39 18 217 97 395 176 177 79 322 147 322
150 0 5 -760 492 -779 498 -8 3 -11 -115 -11 -427z"/>
<path d="M970 2141 c1 -3 38 -29 83 -57 45 -28 121 -77 170 -108 l87 -56 9 24
c5 13 24 35 42 49 l33 25 -90 27 c-49 15 -144 44 -211 65 -68 20 -123 34 -123
31z"/>
<path d="M2430 1905 c-217 -135 -396 -249 -398 -254 -1 -5 66 -38 150 -74 84
-36 267 -115 406 -176 l252 -109 0 429 c0 236 -3 429 -7 429 -5 0 -186 -111
-403 -245z"/>
<path d="M2445 2089 c-88 -27 -178 -54 -199 -60 l-39 -11 32 -19 c18 -11 38
-33 45 -49 l12 -29 164 104 c90 58 165 107 168 110 12 11 -31 1 -183 -46z"/>
<path d="M1557 1936 c8 -48 -3 -83 -33 -111 l-26 -24 87 -56 c84 -54 88 -55
122 -44 30 10 128 8 223 -3 8 -1 52 21 96 50 l82 53 -29 28 c-34 35 -44 71
-31 111 6 16 9 30 7 30 -3 0 -44 -11 -91 -25 -59 -17 -111 -25 -163 -25 -54 0
-103 8 -161 25 -46 14 -85 25 -86 25 -2 0 0 -16 3 -34z"/>
<path d="M1755 1631 c-45 -11 -935 -405 -935 -413 0 -5 443 -8 985 -8 542 0
985 3 985 8 -1 14 -916 409 -961 415 -24 3 -58 2 -74 -2z"/>
<path d="M1494 1085 c-14 -37 26 -69 53 -42 22 22 8 57 -23 57 -14 0 -27 -7
-30 -15z"/>
<path d="M2370 1081 c0 -27 19 -36 37 -18 18 18 9 37 -18 37 -12 0 -19 -7 -19
-19z"/>
<path d="M2714 1089 c-8 -14 21 -43 35 -35 19 12 13 46 -8 46 -11 0 -23 -5
-27 -11z"/>
<path d="M660 940 l0 -150 30 0 30 0 0 150 0 150 -30 0 -30 0 0 -150z"/>
<path d="M2084 1077 c-2 -7 -3 -73 -2 -147 3 -119 5 -135 21 -138 15 -3 17 8
17 114 l0 117 73 -114 c102 -159 107 -157 107 30 0 126 -2 151 -15 151 -12 0
-15 -22 -17 -115 l-3 -114 -70 114 c-67 110 -97 137 -111 102z"/>
<path d="M790 904 l0 -114 30 0 30 0 0 73 c0 83 8 100 41 95 23 -3 24 -7 27
-85 l3 -83 29 0 30 0 0 93 c0 84 -2 96 -23 115 -18 17 -34 21 -95 21 l-72 0 0
-115z"/>
<path d="M1010 1013 c0 -4 17 -56 37 -115 38 -107 38 -108 70 -108 18 0 33 1
33 3 0 2 64 182 75 210 6 14 1 17 -29 17 -35 0 -36 -1 -52 -57 -9 -32 -19 -62
-22 -67 -3 -6 -15 19 -27 55 -20 59 -24 64 -53 67 -18 2 -32 0 -32 -5z"/>
<path d="M1287 1000 c-83 -66 -40 -210 63 -210 92 0 134 133 63 204 -32 33
-89 35 -126 6z m91 -74 c8 -63 -22 -98 -56 -64 -16 16 -15 71 0 86 22 22 53
10 56 -22z"/>
<path d="M1490 905 l0 -116 33 3 32 3 0 110 0 110 -32 3 -33 3 0 -116z"/>
<path d="M1647 1009 c-41 -24 -61 -113 -36 -162 28 -55 103 -75 154 -41 29 19
32 36 10 54 -13 11 -20 11 -39 1 -33 -18 -59 -10 -70 21 -20 57 38 106 74 63
12 -14 15 -14 31 1 25 22 24 39 -3 58 -25 18 -94 21 -121 5z"/>
<path d="M1867 1009 c-62 -36 -60 -175 2 -209 44 -23 131 -4 131 28 0 18 -32
30 -66 25 -20 -3 -35 1 -43 11 -12 14 -7 16 53 16 l66 0 0 39 c0 57 -39 101
-88 101 -21 0 -45 -5 -55 -11z m71 -51 c19 -19 14 -28 -18 -28 -41 0 -40 33 1
39 3 1 10 -4 17 -11z"/>
<path d="M2370 905 c0 -108 1 -115 20 -115 19 0 20 7 20 115 0 108 -1 115 -20
115 -19 0 -20 -7 -20 -115z"/>
<path d="M2480 905 c0 -96 3 -115 15 -115 12 0 15 15 15 73 0 90 15 122 55
122 40 0 55 -32 55 -122 0 -58 3 -73 15 -73 12 0 15 17 15 95 0 82 -3 98 -20
115 -22 22 -70 26 -101 10 -13 -7 -19 -7 -19 0 0 5 -7 10 -15 10 -12 0 -15
-19 -15 -115z"/>
<path d="M2720 896 c0 -114 -2 -128 -20 -143 -28 -24 -26 -46 3 -38 48 15 52
27 52 168 0 117 -2 132 -17 135 -16 3 -18 -8 -18 -122z"/>
<path d="M2841 1011 c-25 -16 -2 -31 40 -25 43 7 69 -7 69 -37 0 -16 -8 -19
-50 -19 -59 0 -90 -24 -90 -70 0 -17 9 -39 20 -50 21 -21 74 -27 100 -10 9 6
17 5 21 -2 4 -6 15 -8 24 -4 15 5 16 19 13 95 -4 110 -18 131 -87 131 -25 0
-52 -4 -60 -9z m107 -137 c4 -28 -30 -56 -65 -52 -20 2 -29 9 -31 26 -6 43 4
53 50 50 35 -2 44 -7 46 -24z"/>
</g>
</svg>
